<svg aria-hidden="true" style="position: absolute; width: 0; height: 0; overflow: hidden;" version="1.1" xmlns="http://www.w3.org/2000/svg" xmlns:xlink="http://www.w3.org/1999/xlink">
<defs>
<symbol id="icon-bookmark" viewBox="0 0 20 20">
<path d="M14 2v17l-4-4-4 4v-17c0-0.553 0.585-1.020 1-1h6c0.689-0.020 1 0.447 1 1z"></path>
</symbol>
<symbol id="icon-chevron-thin-right" viewBox="0 0 20 20">
<path d="M13.25 10l-7.141-7.42c-0.268-0.27-0.268-0.707 0-0.979 0.268-0.27 0.701-0.27 0.969 0l7.83 7.908c0.268 0.271 0.268 0.709 0 0.979l-7.83 7.908c-0.268 0.271-0.701 0.27-0.969 0s-0.268-0.707 0-0.979l7.141-7.417z"></path>
</symbol>
<symbol id="icon-aircraft-take-off" viewBox="0 0 20 20">
<path d="M19.87 6.453c0.119 0.257 0.127 1.29-4.884 3.642l-4.913 2.306c-1.71 0.803-4.191 1.859-5.285 2.151-0.766 0.204-1.497-0.316-1.497-0.316s-2.206-1.975-2.792-2.419c-0.585-0.444-0.535-0.67 0.215-0.91 0.467-0.149 3.13 0.493 4.265 0.78 1.339-0.8 2.562-1.486 3.141-1.798-1.396-1.033-4.008-2.962-4.841-3.55-0.799-0.565 0.010-0.768 0.010-0.768 0.368-0.099 1.162-0.228 1.562-0.144 2.721 0.569 7.263 2.071 7.611 2.186 0.832-0.436 2.128-1.092 2.922-1.465 2.075-0.974 4.327-0.037 4.486 0.305z"></path>
</symbol>
<symbol id="icon-chat" viewBox="0 0 20 20">
<path d="M5.8 12.2v-6.2h-3.8c-1.1 0-2 0.9-2 2v6c0 1.1 0.9 2 2 2h1v3l3-3h5c1.1 0 2-0.9 2-2v-1.82c-0.064 0.014-0.132 0.021-0.2 0.021l-7-0.001zM18 1h-9c-1.1 0-2 0.9-2 2v8h7l3 3v-3h1c1.1 0 2-0.899 2-2v-6c0-1.1-0.9-2-2-2z"></path>
</symbol>
<symbol id="icon-home" viewBox="0 0 20 20">
<path d="M18.672 11h-1.672v6c0 0.445-0.194 1-1 1h-4v-6h-4v6h-4c-0.806 0-1-0.555-1-1v-6h-1.672c-0.598 0-0.47-0.324-0.060-0.748l8.024-8.032c0.195-0.202 0.451-0.302 0.708-0.312 0.257 0.010 0.513 0.109 0.708 0.312l8.023 8.031c0.411 0.425 0.539 0.749-0.059 0.749z"></path>
</symbol>
<symbol id="icon-key" viewBox="0 0 20 20">
<path d="M17.691 4.725c-0.503-2.977-3.22-4.967-6.069-4.441s-5.256 2.816-4.753 5.795c0.107 0.641 0.408 1.644 0.763 2.365l-5.175 7.723c-0.191 0.285-0.299 0.799-0.242 1.141l0.333 1.971c0.058 0.342 0.372 0.572 0.7 0.514l1.516-0.281c0.328-0.059 0.744-0.348 0.924-0.639l2.047-3.311 0.018-0.022 1.386-0.256 2.39-3.879c0.785 0.139 1.912 0.092 2.578-0.031 2.848-0.526 4.087-3.67 3.584-6.649zM15.166 6.252c-0.784 1.17-1.584 0.346-2.703-0.475-1.119-0.818-2.135-1.322-1.352-2.492s2.326-1.455 3.447-0.635c1.12 0.819 1.391 2.432 0.608 3.602z"></path>
</symbol>
<symbol id="icon-location-pin" viewBox="0 0 20 20">
<path d="M10 2.009c-2.762 0-5 2.229-5 4.99 0 4.774 5 11 5 11s5-6.227 5-11c0-2.76-2.238-4.99-5-4.99zM10 9.76c-1.492 0-2.7-1.209-2.7-2.7s1.208-2.7 2.7-2.7c1.49 0 2.699 1.209 2.699 2.7s-1.209 2.7-2.699 2.7z"></path>
</symbol>
<symbol id="icon-log-out" viewBox="0 0 20 20">
<path d="M19 10l-6-5v3h-7v4h7v3l6-5zM3 3h8v-2h-8c-1.1 0-2 0.9-2 2v14c0 1.1 0.9 2 2 2h8v-2h-8v-14z"></path>
</symbol>
<symbol id="icon-magnifying-glass" viewBox="0 0 20 20">
<path d="M17.545 15.467l-3.779-3.779c0.57-0.935 0.898-2.035 0.898-3.21 0-3.417-2.961-6.377-6.378-6.377s-6.186 2.769-6.186 6.186c0 3.416 2.961 6.377 6.377 6.377 1.137 0 2.2-0.309 3.115-0.844l3.799 3.801c0.372 0.371 0.975 0.371 1.346 0l0.943-0.943c0.371-0.371 0.236-0.84-0.135-1.211zM4.004 8.287c0-2.366 1.917-4.283 4.282-4.283s4.474 2.107 4.474 4.474c0 2.365-1.918 4.283-4.283 4.283s-4.473-2.109-4.473-4.474z"></path>
</symbol>
<symbol id="icon-map" viewBox="0 0 20 20">
<path d="M19.447 3.718l-6-3c-0.281-0.141-0.613-0.141-0.895 0l-5.63 2.815-5.606-1.869c-0.306-0.102-0.64-0.051-0.901 0.138s-0.415 0.49-0.415 0.811v13.001c0 0.379 0.214 0.725 0.553 0.894l6 3c0.141 0.070 0.294 0.106 0.447 0.106s0.307-0.035 0.447-0.106l5.63-2.814 5.606 1.869c0.305 0.1 0.64 0.049 0.901-0.139s0.415-0.49 0.415-0.81v-13.002c0.001-0.379-0.213-0.725-0.552-0.894zM8 5.231l4-2v11.763l-4 2v-11.763zM2 4l4 1.333v11.661l-4-2v-10.994zM18 16.227l-4-1.334v-11.662l4 2v10.996z"></path>
</symbol>
<symbol id="icon-star" viewBox="0 0 20 20">
<path d="M10 1.3l2.388 6.722h6.412l-5.232 3.948 1.871 6.928-5.439-4.154-5.438 4.154 1.87-6.928-5.233-3.948h6.412l2.389-6.722z"></path>
</symbol>
<symbol id="icon-cog" viewBox="0 0 32 32">
<path d="M29.181 19.070c-1.679-2.908-0.669-6.634 2.255-8.328l-3.145-5.447c-0.898 0.527-1.943 0.829-3.058 0.829-3.361 0-6.085-2.742-6.085-6.125h-6.289c0.008 1.044-0.252 2.103-0.811 3.070-1.679 2.908-5.411 3.897-8.339 2.211l-3.144 5.447c0.905 0.515 1.689 1.268 2.246 2.234 1.676 2.903 0.672 6.623-2.241 8.319l3.145 5.447c0.895-0.522 1.935-0.82 3.044-0.82 3.35 0 6.067 2.725 6.084 6.092h6.289c-0.003-1.034 0.259-2.080 0.811-3.038 1.676-2.903 5.399-3.894 8.325-2.219l3.145-5.447c-0.899-0.515-1.678-1.266-2.232-2.226zM16 22.479c-3.578 0-6.479-2.901-6.479-6.479s2.901-6.479 6.479-6.479c3.578 0 6.479 2.901 6.479 6.479s-2.901 6.479-6.479 6.479z"></path>
</symbol>
<symbol id="icon-cogs" viewBox="0 0 32 32">
<path d="M11.366 22.564l1.291-1.807-1.414-1.414-1.807 1.291c-0.335-0.187-0.694-0.337-1.071-0.444l-0.365-2.19h-2l-0.365 2.19c-0.377 0.107-0.736 0.256-1.071 0.444l-1.807-1.291-1.414 1.414 1.291 1.807c-0.187 0.335-0.337 0.694-0.443 1.071l-2.19 0.365v2l2.19 0.365c0.107 0.377 0.256 0.736 0.444 1.071l-1.291 1.807 1.414 1.414 1.807-1.291c0.335 0.187 0.694 0.337 1.071 0.444l0.365 2.19h2l0.365-2.19c0.377-0.107 0.736-0.256 1.071-0.444l1.807 1.291 1.414-1.414-1.291-1.807c0.187-0.335 0.337-0.694 0.444-1.071l2.19-0.365v-2l-2.19-0.365c-0.107-0.377-0.256-0.736-0.444-1.071zM7 27c-1.105 0-2-0.895-2-2s0.895-2 2-2 2 0.895 2 2-0.895 2-2 2zM32 12v-2l-2.106-0.383c-0.039-0.251-0.088-0.499-0.148-0.743l1.799-1.159-0.765-1.848-2.092 0.452c-0.132-0.216-0.273-0.426-0.422-0.629l1.219-1.761-1.414-1.414-1.761 1.219c-0.203-0.149-0.413-0.29-0.629-0.422l0.452-2.092-1.848-0.765-1.159 1.799c-0.244-0.059-0.492-0.109-0.743-0.148l-0.383-2.106h-2l-0.383 2.106c-0.251 0.039-0.499 0.088-0.743 0.148l-1.159-1.799-1.848 0.765 0.452 2.092c-0.216 0.132-0.426 0.273-0.629 0.422l-1.761-1.219-1.414 1.414 1.219 1.761c-0.149 0.203-0.29 0.413-0.422 0.629l-2.092-0.452-0.765 1.848 1.799 1.159c-0.059 0.244-0.109 0.492-0.148 0.743l-2.106 0.383v2l2.106 0.383c0.039 0.251 0.088 0.499 0.148 0.743l-1.799 1.159 0.765 1.848 2.092-0.452c0.132 0.216 0.273 0.426 0.422 0.629l-1.219 1.761 1.414 1.414 1.761-1.219c0.203 0.149 0.413 0.29 0.629 0.422l-0.452 2.092 1.848 0.765 1.159-1.799c0.244 0.059 0.492 0.109 0.743 0.148l0.383 2.106h2l0.383-2.106c0.251-0.039 0.499-0.088 0.743-0.148l1.159 1.799 1.848-0.765-0.452-2.092c0.216-0.132 0.426-0.273 0.629-0.422l1.761 1.219 1.414-1.414-1.219-1.761c0.149-0.203 0.29-0.413 0.422-0.629l2.092 0.452 0.765-1.848-1.799-1.159c0.059-0.244 0.109-0.492 0.148-0.743l2.106-0.383zM21 15.35c-2.402 0-4.35-1.948-4.35-4.35s1.948-4.35 4.35-4.35 4.35 1.948 4.35 4.35c0 2.402-1.948 4.35-4.35 4.35z"></path>
</symbol>
<symbol id="icon-sphere" viewBox="0 0 32 32">
<path d="M15 2c-8.284 0-15 6.716-15 15s6.716 15 15 15c8.284 0 15-6.716 15-15s-6.716-15-15-15zM23.487 22c0.268-1.264 0.437-2.606 0.492-4h3.983c-0.104 1.381-0.426 2.722-0.959 4h-3.516zM6.513 12c-0.268 1.264-0.437 2.606-0.492 4h-3.983c0.104-1.381 0.426-2.722 0.959-4h3.516zM21.439 12c0.3 1.28 0.481 2.62 0.54 4h-5.979v-4h5.439zM16 10v-5.854c0.456 0.133 0.908 0.355 1.351 0.668 0.831 0.586 1.625 1.488 2.298 2.609 0.465 0.775 0.867 1.638 1.203 2.578h-4.852zM10.351 7.422c0.673-1.121 1.467-2.023 2.298-2.609 0.443-0.313 0.895-0.535 1.351-0.668v5.854h-4.852c0.336-0.94 0.738-1.803 1.203-2.578zM14 12v4h-5.979c0.059-1.38 0.24-2.72 0.54-4h5.439zM2.997 22c-0.533-1.278-0.854-2.619-0.959-4h3.983c0.055 1.394 0.224 2.736 0.492 4h-3.516zM8.021 18h5.979v4h-5.439c-0.3-1.28-0.481-2.62-0.54-4zM14 24v5.854c-0.456-0.133-0.908-0.355-1.351-0.668-0.831-0.586-1.625-1.488-2.298-2.609-0.465-0.775-0.867-1.638-1.203-2.578h4.852zM19.649 26.578c-0.673 1.121-1.467 2.023-2.298 2.609-0.443 0.312-0.895 0.535-1.351 0.668v-5.854h4.852c-0.336 0.94-0.738 1.802-1.203 2.578zM16 22v-4h5.979c-0.059 1.38-0.24 2.72-0.54 4h-5.439zM23.98 16c-0.055-1.394-0.224-2.736-0.492-4h3.516c0.533 1.278 0.855 2.619 0.959 4h-3.983zM25.958 10h-2.997c-0.582-1.836-1.387-3.447-2.354-4.732 1.329 0.636 2.533 1.488 3.585 2.54 0.671 0.671 1.261 1.404 1.766 2.192zM5.808 7.808c1.052-1.052 2.256-1.904 3.585-2.54-0.967 1.285-1.771 2.896-2.354 4.732h-2.997c0.504-0.788 1.094-1.521 1.766-2.192zM4.042 24h2.997c0.583 1.836 1.387 3.447 2.354 4.732-1.329-0.636-2.533-1.488-3.585-2.54-0.671-0.671-1.261-1.404-1.766-2.192zM24.192 26.192c-1.052 1.052-2.256 1.904-3.585 2.54 0.967-1.285 1.771-2.896 2.354-4.732h2.997c-0.504 0.788-1.094 1.521-1.766 2.192z"></path>
</symbol>
<symbol id="icon-notification" viewBox="0 0 32 32">
<path d="M16 3c-3.472 0-6.737 1.352-9.192 3.808s-3.808 5.72-3.808 9.192c0 3.472 1.352 6.737 3.808 9.192s5.72 3.808 9.192 3.808c3.472 0 6.737-1.352 9.192-3.808s3.808-5.72 3.808-9.192c0-3.472-1.352-6.737-3.808-9.192s-5.72-3.808-9.192-3.808zM16 0v0c8.837 0 16 7.163 16 16s-7.163 16-16 16c-8.837 0-16-7.163-16-16s7.163-16 16-16zM14 22h4v4h-4zM14 6h4v12h-4z"></path>
</symbol>
<symbol id="icon-question" viewBox="0 0 32 32">
<path d="M14 22h4v4h-4zM22 8c1.105 0 2 0.895 2 2v6l-6 4h-4v-2l6-4v-2h-10v-4h12zM16 3c-3.472 0-6.737 1.352-9.192 3.808s-3.808 5.72-3.808 9.192c0 3.472 1.352 6.737 3.808 9.192s5.72 3.808 9.192 3.808c3.472 0 6.737-1.352 9.192-3.808s3.808-5.72 3.808-9.192c0-3.472-1.352-6.737-3.808-9.192s-5.72-3.808-9.192-3.808zM16 0v0c8.837 0 16 7.163 16 16s-7.163 16-16 16c-8.837 0-16-7.163-16-16s7.163-16 16-16z"></path>
</symbol>
<symbol id="icon-info" viewBox="0 0 32 32">
<path d="M14 9.5c0-0.825 0.675-1.5 1.5-1.5h1c0.825 0 1.5 0.675 1.5 1.5v1c0 0.825-0.675 1.5-1.5 1.5h-1c-0.825 0-1.5-0.675-1.5-1.5v-1z"></path>
<path d="M20 24h-8v-2h2v-6h-2v-2h6v8h2z"></path>
<path d="M16 0c-8.837 0-16 7.163-16 16s7.163 16 16 16 16-7.163 16-16-7.163-16-16-16zM16 29c-7.18 0-13-5.82-13-13s5.82-13 13-13 13 5.82 13 13-5.82 13-13 13z"></path>
</symbol>
<symbol id="icon-safari" viewBox="0 0 32 32">
<path d="M16 0c-8.838 0-16 7.162-16 16s7.162 16 16 16 16-7.163 16-16-7.163-16-16-16zM29.95 14.775l-0.031-0.331c0.006 0.113 0.019 0.219 0.031 0.331zM27.762 8.4l-0.225-0.338c0.075 0.113 0.15 0.225 0.225 0.338zM26.894 7.206l-0.137-0.169c0.050 0.056 0.094 0.112 0.137 0.169zM24.956 5.237l-0.169-0.138c0.063 0.050 0.113 0.094 0.169 0.138zM23.938 4.463l-0.337-0.225c0.113 0.075 0.225 0.15 0.337 0.225zM17.556 2.087l-0.337-0.031c0.113 0.006 0.225 0.019 0.337 0.031zM14.775 2.050l-0.338 0.031c0.113-0.006 0.225-0.019 0.338-0.031zM8.4 4.237l-0.338 0.225c0.113-0.075 0.225-0.15 0.338-0.225zM7.206 5.106l-0.162 0.131c0.056-0.044 0.106-0.088 0.162-0.131zM5.237 7.044l-0.138 0.169c0.050-0.056 0.094-0.112 0.138-0.169zM4.463 8.063l-0.225 0.338c0.075-0.113 0.15-0.225 0.225-0.338zM2.087 14.444l-0.031 0.338c0.006-0.113 0.019-0.225 0.031-0.338zM2.050 17.225l0.031 0.337c-0.006-0.113-0.019-0.225-0.031-0.337zM4.237 23.594l0.225 0.337c-0.075-0.106-0.15-0.219-0.225-0.337zM4.5 23.988l2.494-1.669-0.275-0.419-2.494 1.669c-1.131-1.756-1.875-3.775-2.125-5.95l1.494-0.15-0.050-0.5-1.494 0.15c-0.025-0.288-0.038-0.581-0.044-0.875h3v-0.5h-3c0.006-0.294 0.019-0.581 0.044-0.875l1.494 0.144 0.050-0.5-1.494-0.144c0.25-2.175 1-4.194 2.131-5.95l2.494 1.669 0.275-0.419-2.5-1.656c0.169-0.237 0.338-0.475 0.519-0.7l1.156 0.95 0.319-0.388-1.156-0.95c0.188-0.225 0.388-0.438 0.588-0.65l2.119 2.119 0.356-0.356-2.119-2.119c0.213-0.2 0.425-0.4 0.644-0.588l0.95 1.162 0.387-0.319-0.95-1.156c0.231-0.181 0.463-0.356 0.7-0.525l1.669 2.494 0.419-0.275-1.669-2.494c1.756-1.131 3.775-1.875 5.95-2.125l0.15 1.494 0.5-0.050-0.15-1.494c0.287-0.025 0.581-0.038 0.875-0.044v3h0.5v-3c0.294 0.006 0.581 0.019 0.875 0.044l-0.144 1.494 0.5 0.050 0.144-1.494c2.175 0.25 4.194 1 5.95 2.131l-1.669 2.494 0.419 0.275 1.669-2.494c0.238 0.169 0.475 0.338 0.7 0.519l-0.95 1.156 0.387 0.319 0.95-1.156c0.225 0.188 0.438 0.388 0.65 0.588l-0.8 0.781-10.938 7.294-7.294 10.937-0.781 0.781c-0.2-0.212-0.4-0.425-0.588-0.644l1.156-0.95-0.319-0.387-1.156 0.95c-0.181-0.225-0.35-0.462-0.519-0.7zM5.237 24.956c-0.044-0.056-0.088-0.106-0.131-0.163l0.131 0.163zM7.044 26.762l0.162 0.131c-0.056-0.044-0.106-0.087-0.162-0.131zM8.063 27.531l0.338 0.225c-0.113-0.069-0.225-0.144-0.338-0.225zM14.444 29.913l0.338 0.031c-0.113-0.006-0.225-0.019-0.338-0.031zM17.225 29.95l0.331-0.031c-0.113 0.006-0.219 0.019-0.331 0.031zM23.6 27.762l0.337-0.225c-0.113 0.075-0.225 0.15-0.337 0.225zM24.794 26.894l0.169-0.137c-0.056 0.050-0.113 0.094-0.169 0.137zM25.887 25.913l0.025-0.025c-0.006 0.006-0.019 0.019-0.025 0.025zM26.762 24.956l0.137-0.169c-0.050 0.056-0.094 0.113-0.137 0.169zM26.981 24.688l-1.156-0.95-0.319 0.387 1.156 0.95c-0.188 0.225-0.387 0.438-0.587 0.65l-2.119-2.119-0.356 0.356 2.119 2.119c-0.212 0.2-0.425 0.4-0.644 0.587l-0.95-1.163-0.387 0.319 0.95 1.156c-0.231 0.181-0.462 0.356-0.7 0.525l-1.669-2.494-0.419 0.275 1.669 2.494c-1.756 1.131-3.775 1.875-5.95 2.125l-0.15-1.494-0.5 0.050 0.15 1.494c-0.288 0.025-0.581 0.038-0.875 0.044v-3h-0.5v3c-0.294-0.006-0.581-0.019-0.875-0.044l0.144-1.494-0.5-0.050-0.144 1.494c-2.175-0.25-4.194-1-5.95-2.131l1.669-2.494-0.419-0.275-1.656 2.494c-0.237-0.169-0.475-0.337-0.7-0.519l0.95-1.156-0.388-0.319-0.95 1.156c-0.225-0.188-0.438-0.387-0.65-0.587l0.787-0.781 10.937-7.294 7.294-10.938 0.781-0.781c0.2 0.213 0.4 0.425 0.587 0.644l-1.156 0.95 0.319 0.387 1.156-0.95c0.181 0.231 0.356 0.463 0.525 0.7l-2.494 1.669 0.275 0.419 2.494-1.669c1.131 1.756 1.875 3.775 2.125 5.95l-1.494 0.15 0.050 0.5 1.494-0.15c0.025 0.287 0.038 0.581 0.044 0.875h-3v0.5h3c-0.006 0.294-0.019 0.581-0.044 0.875l-1.494-0.144-0.050 0.5 1.494 0.144c-0.25 2.175-1 4.194-2.131 5.95l-2.494-1.669-0.275 0.419 2.494 1.669c-0.163 0.225-0.337 0.456-0.519 0.688zM29.95 17.219c-0.012 0.113-0.019 0.225-0.031 0.337l0.031-0.337zM27.762 23.6c-0.075 0.113-0.15 0.225-0.225 0.337l0.225-0.337z"></path>
<path d="M13.517 2.221l0.585 2.942-0.49 0.098-0.585-2.942 0.49-0.098z"></path>
<path d="M18.489 29.78l-0.585-2.942 0.49-0.098 0.585 2.942-0.49 0.098z"></path>
<path d="M12.176 2.528l0.436 1.435-0.478 0.145-0.436-1.435 0.478-0.145z"></path>
<path d="M19.826 29.465l-0.436-1.435 0.478-0.145 0.436 1.435-0.478 0.145z"></path>
<path d="M10.875 2.972l1.148 2.772-0.462 0.191-1.148-2.772 0.462-0.191z"></path>
<path d="M21.129 29.030l-1.148-2.772 0.462-0.191 1.148 2.772-0.462 0.191z"></path>
<path d="M9.176 3.771l0.441-0.236 0.707 1.323-0.441 0.236-0.707-1.323z"></path>
<path d="M22.816 28.228l-0.441 0.236-0.707-1.323 0.441-0.236 0.707 1.323z"></path>
<path d="M3.769 9.182l1.323 0.707-0.236 0.441-1.323-0.707 0.236-0.441z"></path>
<path d="M28.226 22.819l-1.323-0.707 0.236-0.441 1.323 0.707-0.236 0.441z"></path>
<path d="M5.744 12.019l-2.772-1.148 0.191-0.462 2.772 1.148-0.191 0.462z"></path>
<path d="M26.26 19.978l2.772 1.148-0.191 0.462-2.772-1.148 0.191-0.462z"></path>
<path d="M2.673 11.7l1.436 0.435-0.145 0.479-1.436-0.435 0.145-0.479z"></path>
<path d="M29.322 20.302l-1.436-0.435 0.145-0.479 1.436 0.435-0.145 0.479z"></path>
<path d="M2.315 13.024l2.942 0.585-0.098 0.49-2.942-0.585 0.098-0.49z"></path>
<path d="M29.679 18.976l-2.942-0.585 0.098-0.49 2.942 0.585-0.098 0.49z"></path>
<path d="M2.218 18.486l2.942-0.585 0.098 0.49-2.942 0.585-0.098-0.49z"></path>
<path d="M29.776 13.513l-2.942 0.585-0.098-0.49 2.942-0.585 0.098 0.49z"></path>
<path d="M2.53 19.829l1.435-0.436 0.145 0.478-1.435 0.436-0.145-0.478z"></path>
<path d="M29.468 12.178l-1.435 0.436-0.145-0.478 1.435-0.436 0.145 0.478z"></path>
<path d="M3.161 21.591l-0.191-0.462 2.772-1.148 0.191 0.462-2.772 1.148z"></path>
<path d="M28.837 10.413l0.191 0.462-2.772 1.148-0.191-0.462 2.772-1.148z"></path>
<path d="M3.776 22.821l-0.236-0.441 1.323-0.707 0.236 0.441-1.323 0.707z"></path>
<path d="M28.233 9.181l0.236 0.441-1.323 0.707-0.236-0.441 1.323-0.707z"></path>
<path d="M9.621 28.464l-0.441-0.236 0.707-1.323 0.441 0.236-0.707 1.323z"></path>
<path d="M22.377 3.534l0.441 0.236-0.707 1.323-0.441-0.236 0.707-1.323z"></path>
<path d="M10.415 28.837l1.148-2.772 0.462 0.191-1.148 2.772-0.462-0.191z"></path>
<path d="M21.59 3.16l-1.148 2.772-0.462-0.191 1.148-2.772 0.462 0.191z"></path>
<path d="M12.176 29.47l-0.478-0.145 0.435-1.435 0.478 0.145-0.435 1.435z"></path>
<path d="M19.823 2.528l0.479 0.145-0.435 1.436-0.479-0.145 0.435-1.436z"></path>
<path d="M13.515 29.776l-0.49-0.098 0.585-2.942 0.49 0.098-0.585 2.942z"></path>
<path d="M18.485 2.218l0.49 0.098-0.585 2.942-0.49-0.098 0.585-2.942z"></path>
</symbol>
</defs>
</svg>
